# WaveFront *.obj file (generated by Autodesk ATF)

mtllib RobotTableCollisionVolume.mtl

g TableBoundingVolume

v -0.380962 0.381032 0.000002
v 0.381026 0.380969 -0.000002
v 0.381022 0.380969 -0.885002
v -0.380966 0.381032 -0.884998
v -0.381026 -0.380969 0.000002
v -0.381030 -0.380969 -0.884998
v 0.380962 -0.381032 -0.000002
v 0.380958 -0.381032 -0.885002
vt 0.000000 0.000000 0.000000
vt 76.198820 0.000000 0.000000
vt 0.000000 88.500000 0.000000
vt 76.198820 88.500000 0.000000
vt 0.000000 0.000000 0.000000
vt 76.200100 0.000000 0.000000
vt 0.000000 88.500000 0.000000
vt 76.200100 88.500000 0.000000
vt -0.000000 0.000000 0.000000
vt 76.198820 0.000000 0.000000
vt 0.000000 88.500000 0.000000
vt 76.198820 88.500000 0.000000
vt 0.000000 0.000000 0.000000
vt 76.200100 0.000000 0.000000
vt -0.000000 88.500000 0.000000
vt 76.200100 88.500000 0.000000
vt 38.102582 38.096877 0.000000
vt -38.096237 38.103222 0.000000
vt 38.096237 -38.103222 0.000000
vt -38.102582 -38.096877 0.000000
vt -38.102582 38.096877 0.000000
vt -38.096237 -38.103222 0.000000
vt 38.096237 38.103222 0.000000
vt 38.102582 -38.096877 0.000000
vn 0.008327 100.000000 0.000000
vn 0.008327 100.000000 0.000000
vn 0.008327 100.000000 0.000000
vn 0.008327 100.000000 0.000000
vn -100.000000 0.008327 0.000440
vn -100.000000 0.008327 0.000440
vn -100.000000 0.008327 0.000440
vn -100.000000 0.008327 0.000440
vn -0.008327 -100.000000 -0.000000
vn -0.008327 -100.000000 -0.000000
vn -0.008327 -100.000000 -0.000000
vn -0.008327 -100.000000 -0.000000
vn 100.000000 -0.008327 -0.000440
vn 100.000000 -0.008327 -0.000440
vn 100.000000 -0.008327 -0.000440
vn 100.000000 -0.008327 -0.000440
vn 0.000440 -0.000000 100.000000
vn 0.000440 -0.000000 100.000000
vn 0.000440 -0.000000 100.000000
vn 0.000440 -0.000000 100.000000
vn -0.000440 0.000000 -100.000000
vn -0.000440 0.000000 -100.000000
vn -0.000440 0.000000 -100.000000
vn -0.000440 0.000000 -100.000000
usemtl Phenolic_(Amber)
f 1/1/1 2/2/2 4/3/3
f 4/3/3 2/2/2 3/4/4
f 5/5/5 1/6/6 6/7/7
f 6/7/7 1/6/6 4/8/8
f 7/9/9 5/10/10 8/11/11
f 8/11/11 5/10/10 6/12/12
f 2/13/13 7/14/14 3/15/15
f 3/15/15 7/14/14 8/16/16
f 2/17/17 1/18/18 7/19/19
f 7/19/19 1/18/18 5/20/20
f 3/21/21 8/22/22 4/23/23
f 4/23/23 8/22/22 6/24/24
# 8 vertices
# 24 texture params
# 24 normals
# 12 facets

# 1 groups
